<mxfile host="app.diagrams.net" modified="2020-04-12T22:44:49.933Z" agent="5.0 (Macintosh; Intel Mac OS X 10_15_3) AppleWebKit/537.36 (KHTML, like Gecko) Chrome/80.0.3987.163 Safari/537.36" etag="y1H-NDq-ql_oE8k79zwS" version="12.9.11" type="github">
  <diagram id="brjJ__DVkyhJXGj2bPSd" name="Page-1">
    <mxGraphModel dx="1678" dy="886" grid="1" gridSize="10" guides="0" tooltips="1" connect="0" arrows="0" fold="1" page="1" pageScale="1" pageWidth="1000" pageHeight="640" math="0" shadow="0" extFonts="Bangers^https://fonts.googleapis.com/css?family=Bangers">
      <root>
        <mxCell id="0" />
        <mxCell id="1" parent="0" />
        <mxCell id="JxzRHoV-RRK4VgL_k4cQ-1" value="Encounter Deck" style="rounded=1;whiteSpace=wrap;html=1;aspect=fixed;fontFamily=Bangers;FType=g;fontSize=39;fillColor=#FF0000;strokeWidth=4;shadow=0;comic=0;glass=0;" parent="1" vertex="1">
          <mxGeometry x="10" y="330" width="200" height="300" as="geometry" />
        </mxCell>
        <mxCell id="JxzRHoV-RRK4VgL_k4cQ-2" value="Encounter Discard" style="rounded=1;whiteSpace=wrap;html=1;aspect=fixed;fontFamily=Bangers;FType=g;fontSize=39;fillColor=#FF0000;strokeWidth=4;shadow=0;comic=0;glass=0;" parent="1" vertex="1">
          <mxGeometry x="10" y="10" width="200" height="300" as="geometry" />
        </mxCell>
        <mxCell id="JxzRHoV-RRK4VgL_k4cQ-3" value="VillaIn" style="rounded=1;whiteSpace=wrap;html=1;aspect=fixed;fontFamily=Bangers;FType=g;fontSize=39;fillColor=#FF0000;strokeWidth=4;shadow=0;comic=0;glass=0;" parent="1" vertex="1">
          <mxGeometry x="670" y="10" width="300" height="450" as="geometry" />
        </mxCell>
        <mxCell id="JxzRHoV-RRK4VgL_k4cQ-4" value="Life Counter" style="rounded=1;whiteSpace=wrap;html=1;fontFamily=Bangers;FType=g;fontSize=39;fillColor=#FF0000;strokeWidth=4;shadow=0;comic=0;glass=0;aspect=fixed;" parent="1" vertex="1">
          <mxGeometry x="730" y="490" width="180" height="120" as="geometry" />
        </mxCell>
        <mxCell id="Fyu6JnIq5bOG8-9G4B80-1" value="" style="rounded=1;whiteSpace=wrap;html=1;aspect=fixed;fontFamily=Bangers;FType=g;fontSize=39;fillColor=#FF0000;strokeWidth=4;shadow=0;comic=0;glass=0;" vertex="1" parent="1">
          <mxGeometry x="450" y="10" width="200" height="300" as="geometry" />
        </mxCell>
        <mxCell id="Fyu6JnIq5bOG8-9G4B80-2" value="" style="rounded=1;whiteSpace=wrap;html=1;aspect=fixed;fontFamily=Bangers;FType=g;fontSize=39;fillColor=#FF0000;strokeWidth=4;shadow=0;comic=0;glass=0;" vertex="1" parent="1">
          <mxGeometry x="230" y="10" width="200" height="300" as="geometry" />
        </mxCell>
        <mxCell id="Fyu6JnIq5bOG8-9G4B80-5" value="" style="rounded=1;whiteSpace=wrap;html=1;aspect=fixed;fontFamily=Bangers;FType=g;fontSize=39;fillColor=#FF0000;strokeWidth=4;shadow=0;comic=0;glass=0;" vertex="1" parent="1">
          <mxGeometry x="230" y="330" width="200" height="300" as="geometry" />
        </mxCell>
        <mxCell id="Fyu6JnIq5bOG8-9G4B80-9" value="&lt;font style=&quot;font-size: 28px&quot;&gt;Stunned&lt;/font&gt;" style="rounded=1;whiteSpace=wrap;html=1;fontFamily=Bangers;FType=g;fontSize=39;fillColor=#80FF00;strokeWidth=4;shadow=0;comic=0;glass=0;" vertex="1" parent="1">
          <mxGeometry x="450" y="330" width="200" height="80" as="geometry" />
        </mxCell>
        <mxCell id="Fyu6JnIq5bOG8-9G4B80-10" value="&lt;font style=&quot;font-size: 28px&quot;&gt;Confused&lt;/font&gt;" style="rounded=1;whiteSpace=wrap;html=1;fontFamily=Bangers;FType=g;fontSize=39;fillColor=#9933FF;strokeWidth=4;shadow=0;comic=0;glass=0;" vertex="1" parent="1">
          <mxGeometry x="450" y="440" width="200" height="80" as="geometry" />
        </mxCell>
        <mxCell id="Fyu6JnIq5bOG8-9G4B80-11" value="&lt;font style=&quot;font-size: 28px&quot;&gt;Tough&lt;/font&gt;" style="rounded=1;whiteSpace=wrap;html=1;fontFamily=Bangers;FType=g;fontSize=39;fillColor=#FF9933;strokeWidth=4;shadow=0;comic=0;glass=0;" vertex="1" parent="1">
          <mxGeometry x="450" y="550" width="200" height="80" as="geometry" />
        </mxCell>
      </root>
    </mxGraphModel>
  </diagram>
</mxfile>
